<svg xmlns="http://www.w3.org/2000/svg" viewBox="0 0 64 64">
  <defs>
    <linearGradient id="bg" x1="0" y1="0" x2="1" y2="1"><stop offset="0" stop-color="#2b0709"/><stop offset="1" stop-color="#050506"/></linearGradient>
    <linearGradient id="red" x1="0" y1="0" x2="1" y2="1"><stop offset="0" stop-color="#ff5b4d"/><stop offset="1" stop-color="#b3161b"/></linearGradient>
  </defs>
  <rect width="64" height="64" rx="14" fill="url(#bg)"/>
  <path d="M32 7 49 14v15c0 12-7 21-17 27C22 50 15 41 15 29V14z" fill="url(#red)" stroke="#ffcc3d" stroke-width="2"/>
  <path d="M32 18c-5 7-9 11-9 17a9 9 0 0 0 18 0c0-3-2-6-4-9 0 4-2 6-4 7 1-6-1-10-1-15z" fill="#ffd447"/>
  <path d="M32 27c-3 4-5 6-5 9a5 5 0 0 0 10 0c0-2-1-3-2-5 0 2-1 3-2 4 0-3 0-5-1-8z" fill="#fff4cf"/>
  <circle cx="32" cy="32" r="27" fill="none" stroke="#ff453f" stroke-opacity=".45"/>
</svg>
